# xmcd
#
# Track frame offsets:
#	150
#	14515
#	31215
#	41519
#	56809
#	79350
#	92679
#	104880
#	118747
#	132014
#	142194
#
# Disc length: 2072 seconds
#
# Revision: 1
# Processed by: cddbd v1.5.2PL0 Copyright (c) Steve Scherf et al.
# Submitted via: audiograbber 1.82.02
#
DISCID=9e08160b
DTITLE=Polyrock - Polyrock
DYEAR=1980
DGENRE=Rock
TTITLE0=Romantic Me
TTITLE1=Green for Go
TTITLE2=This Song
TTITLE3=Go West
TTITLE4=Your Dragging Feet
TTITLE5=No Love Lost
TTITLE6=Body Me
TTITLE7=Sound Alarm
TTITLE8=Bucket Rider
TTITLE9=Shut Your Face
TTITLE10=#7
EXTD=
EXTT0=
EXTT1=
EXTT2=
EXTT3=
EXTT4=
EXTT5=
EXTT6=
EXTT7=
EXTT8=
EXTT9=
EXTT10=
PLAYORDER=
